<svg width="405" height="83" viewBox="0 0 405 83" fill="none" xmlns="http://www.w3.org/2000/svg">
<path d="M19 38.35C15.4 38.35 12.25 37.5667 9.55 36C6.85 34.4333 4.73333 32.2334 3.2 29.4C1.7 26.5333 0.949997 23.2333 0.949997 19.5C0.949997 15.7667 1.71666 12.5 3.25 9.70001C4.78333 6.86668 6.9 4.66668 9.6 3.10001C12.3 1.50001 15.4333 0.700012 19 0.700012C21.1667 0.700012 23.0167 0.883347 24.55 1.25002C26.1167 1.61668 27.5 2.05001 28.7 2.55001L30.3 2.85002C30.5667 2.88335 30.7667 2.95001 30.9 3.05001C31.0333 3.11668 31.1333 3.26668 31.2 3.50001C31.3 3.73335 31.3667 4.08335 31.4 4.55001L32 12.35C32.0333 12.5833 31.9 12.75 31.6 12.85L30.85 12.95C30.5833 12.9833 30.4 12.8667 30.3 12.6L28.65 7.15001C28.55 6.81668 28.4167 6.55001 28.25 6.35001C28.0833 6.11668 27.8667 5.90001 27.6 5.70001C26.4667 4.93335 25.15 4.36668 23.65 4.00002C22.15 3.60001 20.55 3.40001 18.85 3.40001C16.0833 3.40001 13.6833 4.06668 11.65 5.40001C9.61666 6.70001 8.03333 8.55001 6.9 10.95C5.8 13.35 5.25 16.2 5.25 19.5C5.25 22.7667 5.8 25.6167 6.9 28.05C8.03333 30.4833 9.61666 32.3667 11.65 33.7C13.6833 35.0333 16.0833 35.7 18.85 35.7C20.5833 35.7 22.2 35.5 23.7 35.1C25.2 34.7 26.5167 34.1167 27.65 33.35C27.95 33.1167 28.1667 32.9 28.3 32.7C28.4667 32.4667 28.6 32.1833 28.7 31.85L30.3 26.45C30.4 26.15 30.5833 26.0333 30.85 26.1L31.65 26.25C31.9167 26.2833 32.0333 26.45 32 26.75L31.35 35.1C31.3167 35.3333 31.2667 35.5333 31.2 35.7C31.1333 35.8667 30.9833 36 30.75 36.1C30.55 36.1667 30.2167 36.25 29.75 36.35L28.7 36.55C27.5 37.0167 26.1167 37.4333 24.55 37.8C23.0167 38.1667 21.1667 38.35 19 38.35Z" fill="white"/>
<path d="M36.1312 38C35.8646 38 35.7312 37.85 35.7312 37.55V37C35.7312 36.7 35.8646 36.5333 36.1312 36.5L39.7312 35.9C40.0646 35.8 40.3312 35.6667 40.5312 35.5C40.7646 35.3 40.9479 35.0333 41.0812 34.7L54.3312 1.60001C54.3979 1.33335 54.5812 1.18335 54.8812 1.15001L56.5312 0.750011C56.7979 0.683346 56.9646 0.800014 57.0312 1.10001L57.5312 3.40001L70.9813 34.85C71.1146 35.15 71.2979 35.3833 71.5312 35.55C71.7646 35.7167 72.0479 35.85 72.3812 35.95L75.6813 36.5C75.9479 36.6 76.0813 36.7833 76.0813 37.05V37.6C76.0813 37.8667 75.9479 38 75.6813 38H60.4312C60.1646 38 60.0312 37.85 60.0312 37.55V37C60.0312 36.7667 60.1812 36.6 60.4812 36.5L64.5812 36C65.5146 35.8667 66.0646 35.6333 66.2313 35.3C66.3979 34.9333 66.2979 34.3333 65.9313 33.5L53.8312 4.60001L56.1812 3.45001L44.4312 33.55C44.0979 34.4167 44.0479 35.0167 44.2812 35.35C44.5146 35.65 45.0812 35.8667 45.9812 36L50.1812 36.55C50.4479 36.5833 50.5812 36.75 50.5812 37.05V37.6C50.5812 37.8667 50.4312 38 50.1312 38H36.1312ZM47.0812 22.3C49.9479 22.4 52.7812 22.45 55.5812 22.45C58.4146 22.4167 61.2479 22.35 64.0812 22.25V24.65C61.2479 24.75 58.4146 24.8 55.5812 24.8C52.7812 24.8 49.9479 24.7667 47.0812 24.7V22.3Z" fill="white"/>
<path d="M77.6375 38C77.3708 38 77.2375 37.85 77.2375 37.55V37C77.2375 36.7 77.3875 36.5333 77.6875 36.5L82.3375 35.85C82.7042 35.8167 82.9708 35.7333 83.1375 35.6C83.3042 35.4333 83.4042 35.1667 83.4375 34.8L85.9875 4.05001C86.0542 3.68335 86.0042 3.41668 85.8375 3.25001C85.6708 3.08335 85.3875 2.98335 84.9875 2.95001L80.3875 2.50001C80.1208 2.46668 79.9875 2.31668 79.9875 2.05001V1.45001C79.9875 1.18335 80.1375 1.05001 80.4375 1.05001H90.5375C90.8708 1.05001 91.0708 1.08335 91.1375 1.15001C91.2042 1.21668 91.2375 1.41668 91.2375 1.75001V1.90001C91.2375 2.43335 91.3042 2.95001 91.4375 3.45001C91.5708 3.91668 91.8042 4.58335 92.1375 5.45001L103.537 34.45L101.338 35.5L112.238 5.40001C112.604 4.50001 112.821 3.81668 112.888 3.35001C112.988 2.88335 113.038 2.36668 113.038 1.80001V1.75001C113.038 1.41668 113.071 1.21668 113.138 1.15001C113.238 1.08335 113.438 1.05001 113.738 1.05001H123.838C124.104 1.05001 124.238 1.20002 124.238 1.50002V2.05001C124.238 2.31668 124.087 2.46668 123.787 2.50001L119.388 2.95001C119.054 2.98335 118.821 3.10001 118.688 3.30001C118.554 3.50001 118.504 3.78335 118.537 4.15001L121.588 34.8C121.621 35.1667 121.721 35.4333 121.888 35.6C122.054 35.7333 122.304 35.8167 122.638 35.85L127.137 36.5C127.404 36.6 127.538 36.7833 127.538 37.05V37.6C127.538 37.8667 127.387 38 127.087 38H111.888C111.621 38 111.488 37.85 111.488 37.55V37C111.488 36.7 111.637 36.5333 111.938 36.5L116.688 35.8C117.054 35.7667 117.287 35.6667 117.387 35.5C117.487 35.3333 117.521 35.0667 117.488 34.7L114.438 3.60001L116.038 3.10001L103.138 37.65C103.071 37.8834 102.888 38 102.588 38H101.388C101.154 38 100.971 37.8667 100.838 37.6L86.9375 3.10001L88.9375 2.10001L86.2875 34.7C86.2542 35.0667 86.2875 35.3333 86.3875 35.5C86.4875 35.6667 86.7208 35.7833 87.0875 35.85L91.7875 36.5C92.0542 36.6 92.1875 36.7833 92.1875 37.05V37.6C92.1875 37.8667 92.0375 38 91.7375 38H77.6375Z" fill="white"/>
<path d="M135.905 38V1.05001H139.855V38H135.905ZM130.305 38C130.038 38 129.905 37.85 129.905 37.55V37C129.905 36.7 130.038 36.5333 130.305 36.5L135.005 35.85C135.338 35.7833 135.571 35.6667 135.705 35.5C135.838 35.3333 135.905 35.0667 135.905 34.7V27.15H139.855V34.8C139.855 35.1667 139.921 35.4333 140.055 35.6C140.221 35.7333 140.471 35.8167 140.805 35.85L145.555 36.5C145.821 36.6 145.955 36.7833 145.955 37.05V37.6C145.955 37.8667 145.805 38 145.505 38H130.305ZM129.905 1.50002C129.905 1.20002 130.038 1.05001 130.305 1.05001H145.505C145.805 1.05001 145.955 1.18335 145.955 1.45001V2.00001C145.955 2.26668 145.821 2.45001 145.555 2.55001L140.805 3.20001C140.471 3.23335 140.221 3.33334 140.055 3.50001C139.921 3.63335 139.855 3.88335 139.855 4.25002V11.9H135.905V4.35001C135.905 3.98335 135.838 3.71668 135.705 3.55001C135.571 3.35001 135.338 3.23335 135.005 3.20001L130.305 2.55001C130.038 2.51668 129.905 2.35001 129.905 2.05001V1.50002Z" fill="white"/>
<path d="M185.082 3.20001C184.716 3.23335 184.449 3.33334 184.282 3.50001C184.149 3.66668 184.082 3.91668 184.082 4.25002V37.75C184.082 38.0167 183.932 38.15 183.632 38.15H182.482C182.182 38.15 181.966 38.0333 181.832 37.8L156.282 3.65001L158.532 2.30001V34.7C158.532 35.0667 158.599 35.3333 158.732 35.5C158.866 35.6667 159.099 35.7833 159.432 35.85L164.132 36.5C164.399 36.6 164.532 36.7833 164.532 37.05V37.6C164.532 37.8667 164.399 38 164.132 38H149.982C149.716 38 149.582 37.85 149.582 37.55V37C149.582 36.7 149.716 36.5333 149.982 36.5L154.682 35.85C155.049 35.8167 155.299 35.7333 155.432 35.6C155.599 35.4333 155.682 35.1667 155.682 34.8V4.30001C155.682 3.96668 155.582 3.71668 155.382 3.55001C155.216 3.35001 154.949 3.23335 154.582 3.20001L149.982 2.55001C149.716 2.48335 149.582 2.31668 149.582 2.05001V1.45001C149.582 1.18335 149.716 1.05001 149.982 1.05001H158.882C159.182 1.05001 159.399 1.16668 159.532 1.40001L183.282 33.3L181.182 35.65V4.35001C181.182 3.98335 181.116 3.71668 180.982 3.55001C180.882 3.38335 180.649 3.26668 180.282 3.20001L175.582 2.55001C175.316 2.48335 175.182 2.31668 175.182 2.05001V1.45001C175.182 1.18335 175.332 1.05001 175.632 1.05001H189.732C189.999 1.05001 190.132 1.20002 190.132 1.50002V2.05001C190.132 2.35001 189.999 2.51668 189.732 2.55001L185.082 3.20001Z" fill="white"/>
<path d="M212.115 38.35C208.549 38.35 205.399 37.5667 202.665 36C199.965 34.4333 197.849 32.2334 196.315 29.4C194.815 26.5333 194.065 23.2333 194.065 19.5C194.065 15.7667 194.832 12.5 196.365 9.70001C197.899 6.86668 200.015 4.66668 202.715 3.10001C205.415 1.50001 208.549 0.700012 212.115 0.700012C215.715 0.700012 218.882 1.48335 221.615 3.05001C224.382 4.61668 226.515 6.81668 228.015 9.65001C229.549 12.4833 230.315 15.7667 230.315 19.5C230.315 23.3 229.549 26.6167 228.015 29.45C226.515 32.2833 224.399 34.4833 221.665 36.05C218.932 37.5833 215.749 38.35 212.115 38.35ZM211.915 35.65C214.782 35.65 217.265 34.9834 219.365 33.65C221.499 32.3167 223.132 30.45 224.265 28.05C225.432 25.65 226.015 22.8 226.015 19.5C226.015 16.2 225.432 13.35 224.265 10.95C223.132 8.55001 221.515 6.70001 219.415 5.40001C217.315 4.06668 214.815 3.40001 211.915 3.40001C209.182 3.40001 206.782 4.06668 204.715 5.40001C202.682 6.70001 201.115 8.55001 200.015 10.95C198.915 13.35 198.365 16.2 198.365 19.5C198.365 22.8 198.915 25.65 200.015 28.05C201.149 30.45 202.732 32.3167 204.765 33.65C206.799 34.9834 209.182 35.65 211.915 35.65Z" fill="white"/>
<path d="M267.061 38C266.827 38 266.644 37.8667 266.511 37.6L252.161 3.95001C252.027 3.61668 251.844 3.38335 251.611 3.25001C251.377 3.08335 251.077 2.96668 250.711 2.90001L247.561 2.50001C247.294 2.46668 247.161 2.30001 247.161 2.00001V1.45001C247.161 1.18335 247.294 1.05001 247.561 1.05001H262.811C263.077 1.05001 263.211 1.20002 263.211 1.50002V2.05001C263.211 2.31668 263.061 2.46668 262.761 2.50001L258.611 2.90001C257.644 2.96668 257.077 3.18335 256.911 3.55001C256.777 3.88335 256.877 4.46668 257.211 5.30001L269.411 34.45L267.061 35.6L278.911 5.25001C279.244 4.38335 279.294 3.80001 279.061 3.50001C278.827 3.16668 278.244 2.96668 277.311 2.90001L273.111 2.50001C272.844 2.46668 272.711 2.30001 272.711 2.00001V1.45001C272.711 1.18335 272.844 1.05001 273.111 1.05001H287.111C287.377 1.05001 287.511 1.20002 287.511 1.50002V2.05001C287.511 2.31668 287.361 2.46668 287.061 2.50001L283.661 2.95001C283.294 2.98335 283.011 3.10001 282.811 3.30001C282.611 3.46668 282.427 3.71668 282.261 4.05001L268.861 37.65C268.794 37.8834 268.611 38 268.311 38H267.061Z" fill="white"/>
<path d="M295.817 38V1.05001H299.767V38H295.817ZM290.217 38C289.95 38 289.817 37.85 289.817 37.55V37C289.817 36.7 289.95 36.5333 290.217 36.5L294.917 35.85C295.25 35.7833 295.483 35.6667 295.617 35.5C295.75 35.3333 295.817 35.0667 295.817 34.7V27.15H299.767V34.8C299.767 35.1667 299.833 35.4333 299.967 35.6C300.133 35.7333 300.383 35.8167 300.717 35.85L305.467 36.5C305.733 36.6 305.867 36.7833 305.867 37.05V37.6C305.867 37.8667 305.717 38 305.417 38H290.217ZM289.817 1.50002C289.817 1.20002 289.95 1.05001 290.217 1.05001H305.417C305.717 1.05001 305.867 1.18335 305.867 1.45001V2.00001C305.867 2.26668 305.733 2.45001 305.467 2.55001L300.717 3.20001C300.383 3.23335 300.133 3.33334 299.967 3.50001C299.833 3.63335 299.767 3.88335 299.767 4.25002V11.9H295.817V4.35001C295.817 3.98335 295.75 3.71668 295.617 3.55001C295.483 3.35001 295.25 3.23335 294.917 3.20001L290.217 2.55001C289.95 2.51668 289.817 2.35001 289.817 2.05001V1.50002Z" fill="white"/>
<path d="M315.495 38V1.05001H319.445V34.65C319.445 35.0167 319.528 35.2833 319.695 35.45C319.861 35.5833 320.128 35.65 320.495 35.65H336.345C336.678 35.65 336.945 35.5667 337.145 35.4C337.378 35.2334 337.595 34.9834 337.795 34.65L340.445 28.8C340.545 28.5667 340.745 28.4833 341.045 28.55L341.795 28.75C342.095 28.8167 342.195 29 342.095 29.3L340.695 37.35C340.661 37.6167 340.595 37.8167 340.495 37.95C340.428 38.0833 340.278 38.1667 340.045 38.2C339.845 38.2333 339.495 38.2333 338.995 38.2L336.595 38H315.495ZM335.445 25.25C335.178 25.25 335.011 25.1167 334.945 24.85L334.045 21.1C333.978 20.8 333.828 20.5833 333.595 20.45C333.395 20.2833 333.111 20.2 332.745 20.2H319.445V17.8H332.845C333.178 17.8 333.428 17.7167 333.595 17.55C333.795 17.3833 333.961 17.1167 334.095 16.75L334.945 13.75C335.011 13.4833 335.195 13.35 335.495 13.35H336.145C336.411 13.35 336.545 13.5 336.545 13.8V24.85C336.545 25.1167 336.395 25.25 336.095 25.25H335.445ZM339.945 10.3C339.678 10.3667 339.495 10.2667 339.395 10L337.495 4.30001C337.395 3.96668 337.228 3.73335 336.995 3.60001C336.761 3.46668 336.461 3.40001 336.095 3.40001H319.445V1.05001H336.595L339.595 0.750011C339.861 0.716679 340.061 0.733347 340.195 0.800014C340.328 0.833347 340.428 0.96668 340.495 1.20001C340.561 1.40001 340.611 1.73335 340.645 2.20001L341.095 9.65001C341.095 9.91668 340.945 10.0667 340.645 10.1L339.945 10.3ZM309.895 38C309.628 38 309.495 37.85 309.495 37.55V37C309.495 36.7 309.628 36.5333 309.895 36.5L314.595 35.85C314.928 35.7833 315.161 35.6667 315.295 35.5C315.428 35.3333 315.495 35.0667 315.495 34.7V27.15H319.445V38H309.895ZM309.495 1.50002C309.495 1.20002 309.628 1.05001 309.895 1.05001H319.445V11.9H315.495V4.35001C315.495 3.98335 315.428 3.71668 315.295 3.55001C315.161 3.35001 314.928 3.23335 314.595 3.20001L309.895 2.55001C309.628 2.51668 309.495 2.35001 309.495 2.05001V1.50002Z" fill="white"/>
<path d="M345.941 44.95C345.841 44.7167 345.908 44.5167 346.141 44.35C347.941 43.3167 349.358 42.2167 350.391 41.05C351.424 39.9167 352.158 38.5667 352.591 37C353.024 35.4 353.241 33.4667 353.241 31.2H357.241C357.241 33.1 357.074 34.7667 356.741 36.2C356.408 37.6 355.841 38.85 355.041 39.95C354.274 41.05 353.208 42.05 351.841 42.95C350.508 43.8833 348.824 44.8167 346.791 45.75C346.558 45.85 346.374 45.7667 346.241 45.5L345.941 44.95ZM353.241 31.2V1.05001H357.241V31.2H353.241ZM347.291 1.50002C347.291 1.20002 347.424 1.05001 347.691 1.05001H362.891C363.191 1.05001 363.341 1.18335 363.341 1.45001V2.00001C363.341 2.26668 363.208 2.45001 362.941 2.55001L358.191 3.20001C357.858 3.23335 357.608 3.33334 357.441 3.50001C357.308 3.63335 357.241 3.88335 357.241 4.25002V11.9H353.291V4.35001C353.291 3.98335 353.224 3.71668 353.091 3.55001C352.958 3.35001 352.724 3.23335 352.391 3.20001L347.691 2.55001C347.424 2.51668 347.291 2.35001 347.291 2.05001V1.50002Z" fill="white"/>
<path d="M385.992 38.35C382.426 38.35 379.275 37.5667 376.542 36C373.842 34.4333 371.726 32.2334 370.192 29.4C368.692 26.5333 367.942 23.2333 367.942 19.5C367.942 15.7667 368.709 12.5 370.242 9.70001C371.776 6.86668 373.892 4.66668 376.592 3.10001C379.292 1.50001 382.426 0.700012 385.992 0.700012C389.592 0.700012 392.759 1.48335 395.492 3.05001C398.259 4.61668 400.392 6.81668 401.892 9.65001C403.425 12.4833 404.192 15.7667 404.192 19.5C404.192 23.3 403.425 26.6167 401.892 29.45C400.392 32.2833 398.275 34.4833 395.542 36.05C392.809 37.5833 389.626 38.35 385.992 38.35ZM385.792 35.65C388.659 35.65 391.142 34.9834 393.242 33.65C395.376 32.3167 397.009 30.45 398.142 28.05C399.309 25.65 399.892 22.8 399.892 19.5C399.892 16.2 399.309 13.35 398.142 10.95C397.009 8.55001 395.392 6.70001 393.292 5.40001C391.192 4.06668 388.692 3.40001 385.792 3.40001C383.059 3.40001 380.659 4.06668 378.592 5.40001C376.559 6.70001 374.992 8.55001 373.892 10.95C372.792 13.35 372.242 16.2 372.242 19.5C372.242 22.8 372.792 25.65 373.892 28.05C375.025 30.45 376.609 32.3167 378.642 33.65C380.675 34.9834 383.059 35.65 385.792 35.65Z" fill="white"/>
<path d="M86.7415 67.1415H91.896C92.785 67.1415 93.5657 67.2386 94.238 67.4328C94.9103 67.6196 95.4706 67.8848 95.9188 68.2284C96.3671 68.572 96.7032 68.9829 96.9273 69.461C97.1589 69.9316 97.2747 70.4471 97.2747 71.0074C97.2747 71.4705 97.1851 71.9038 97.0058 72.3072C96.834 72.7106 96.5874 73.0767 96.2662 73.4054C95.9525 73.7266 95.5715 74.0067 95.1232 74.2458C94.675 74.4774 94.182 74.6604 93.6441 74.7949L99.0564 82H96.1542L90.9884 75.019H89.2403V82H86.7415V67.1415ZM89.2403 74.2682H90.6858C91.2461 74.2682 91.7616 74.1935 92.2322 74.0441C92.7103 73.8947 93.1212 73.6855 93.4648 73.4166C93.8159 73.1402 94.0886 72.8077 94.2828 72.4193C94.4771 72.0308 94.5742 71.5938 94.5742 71.1082C94.5742 70.66 94.4957 70.2491 94.3389 69.8756C94.1894 69.5021 93.9728 69.1846 93.6889 68.9231C93.4125 68.6542 93.0801 68.445 92.6916 68.2956C92.3106 68.1462 91.8923 68.0715 91.4366 68.0715H89.2403V74.2682Z" fill="white"/>
<path d="M120.366 67.1415V68.1051H112.534V73.4166H117.778V74.3803H112.534V81.0364H120.366V82H110.035V67.1415H120.366Z" fill="white"/>
<path d="M137.115 81.4061C137.481 81.4061 137.844 81.3576 138.202 81.2605C138.561 81.1559 138.882 81.0065 139.166 80.8122C139.45 80.6105 139.678 80.3678 139.85 80.0839C140.021 79.7925 140.107 79.4564 140.107 79.0754C140.107 78.6197 139.988 78.2163 139.749 77.8652C139.517 77.5066 139.211 77.1816 138.83 76.8903C138.449 76.5915 138.012 76.3113 137.519 76.0499C137.033 75.7884 136.536 75.527 136.028 75.2655C135.52 75.004 135.02 74.7314 134.527 74.4475C134.041 74.1561 133.608 73.8349 133.227 73.4838C132.846 73.1252 132.536 72.7293 132.297 72.296C132.065 71.8553 131.95 71.351 131.95 70.7833C131.95 70.2155 132.054 69.6889 132.263 69.2033C132.48 68.7177 132.794 68.2994 133.205 67.9483C133.616 67.5897 134.12 67.3095 134.717 67.1078C135.323 66.9061 136.014 66.8053 136.79 66.8053C137.493 66.8053 138.12 66.88 138.673 67.0294C139.226 67.1788 139.711 67.3992 140.13 67.6905C140.548 67.9819 140.903 68.3405 141.194 68.7663C141.486 69.1921 141.721 69.6851 141.9 70.2454L140.623 70.8281C140.473 70.3724 140.283 69.9578 140.051 69.5843C139.82 69.2033 139.543 68.8783 139.222 68.6094C138.901 68.3405 138.527 68.135 138.101 67.9931C137.683 67.8437 137.209 67.769 136.678 67.769C136.208 67.769 135.797 67.8362 135.446 67.9707C135.095 68.0977 134.8 68.2695 134.561 68.4861C134.329 68.6953 134.153 68.9344 134.034 69.2033C133.922 69.4647 133.866 69.7337 133.866 70.0101C133.866 70.3985 133.985 70.7571 134.224 71.0858C134.463 71.407 134.781 71.7133 135.177 72.0047C135.573 72.2885 136.021 72.565 136.521 72.8339C137.029 73.1028 137.545 73.3755 138.068 73.6519C138.591 73.9283 139.103 74.2159 139.603 74.5147C140.111 74.8135 140.563 75.1422 140.959 75.5008C141.355 75.8519 141.672 76.2404 141.911 76.6662C142.15 77.0845 142.27 77.5552 142.27 78.0781C142.27 78.6682 142.158 79.2248 141.934 79.7477C141.71 80.2632 141.374 80.7151 140.925 81.1036C140.477 81.4846 139.921 81.7871 139.256 82.0112C138.591 82.2353 137.818 82.3474 136.936 82.3474C136.219 82.3474 135.58 82.269 135.02 82.1121C134.46 81.9552 133.963 81.7274 133.53 81.4285C133.104 81.1297 132.738 80.7674 132.431 80.3416C132.125 79.9083 131.875 79.4153 131.681 78.8625L133.014 78.3134C133.171 78.799 133.38 79.2323 133.642 79.6132C133.911 79.9942 134.221 80.3192 134.572 80.5881C134.923 80.8496 135.311 81.0513 135.737 81.1932C136.17 81.3352 136.63 81.4061 137.115 81.4061Z" fill="white"/>
<path d="M154.694 67.1415H157.193V82H154.694V67.1415Z" fill="white"/>
<path d="M170.188 67.1415H175.141C176.665 67.1415 177.976 67.2834 179.074 67.5673C180.172 67.8511 181.087 68.3068 181.819 68.9344C182.656 69.6515 183.283 70.4732 183.702 71.3996C184.128 72.3259 184.341 73.3381 184.341 74.4363C184.341 75.4821 184.15 76.4645 183.769 77.3833C183.396 78.3022 182.843 79.1053 182.111 79.7925C181.386 80.4723 180.486 81.0102 179.41 81.4061C178.342 81.8021 177.117 82 175.735 82H170.188V67.1415ZM172.687 80.9131H175.342C176.179 80.9131 176.967 80.7749 177.707 80.4985C178.446 80.2221 179.089 79.8112 179.634 79.2659C180.187 78.7205 180.62 78.0519 180.934 77.2601C181.255 76.4608 181.416 75.5382 181.416 74.4923C181.416 73.5735 181.266 72.733 180.968 71.9711C180.669 71.2016 180.251 70.5405 179.713 69.9877C179.175 69.4349 178.532 69.0053 177.785 68.699C177.046 68.3928 176.235 68.2396 175.354 68.2396H172.687V80.9131Z" fill="white"/>
<path d="M206.995 67.1415V68.1051H199.162V73.4166H204.407V74.3803H199.162V81.0364H206.995V82H196.664V67.1415H206.995Z" fill="white"/>
<path d="M218.881 67.1415H220.282L230.019 78.0109H230.131V67.1415H231.23V82.3474H230.647L220.102 70.2678H220.013V82H218.881V67.1415Z" fill="white"/>
<path d="M246.567 74.6268C246.567 75.6652 246.724 76.599 247.037 77.4282C247.351 78.2499 247.781 78.9484 248.326 79.5236C248.879 80.0914 249.529 80.5284 250.276 80.8347C251.023 81.1335 251.833 81.2829 252.707 81.2829C253.23 81.2829 253.735 81.182 254.22 80.9803C254.706 80.7786 255.154 80.5172 255.565 80.1959C255.983 79.8672 256.357 79.5012 256.685 79.0978C257.014 78.6869 257.283 78.2723 257.492 77.854L258.546 78.5263C258.239 79.0268 257.877 79.5087 257.459 79.9718C257.04 80.4275 256.555 80.8347 256.002 81.1932C255.457 81.5443 254.836 81.8245 254.142 82.0336C253.454 82.2428 252.685 82.3474 251.833 82.3474C250.601 82.3474 249.48 82.142 248.472 81.7311C247.471 81.3202 246.612 80.7637 245.894 80.0615C245.177 79.3593 244.621 78.5413 244.225 77.6075C243.836 76.6662 243.642 75.6726 243.642 74.6268C243.642 73.932 243.732 73.256 243.911 72.5986C244.09 71.9337 244.348 71.3137 244.684 70.7384C245.028 70.1558 245.442 69.6254 245.928 69.1473C246.421 68.6617 246.974 68.2471 247.587 67.9034C248.207 67.5523 248.883 67.2834 249.615 67.0966C250.347 66.9024 251.127 66.8053 251.957 66.8053C252.749 66.8053 253.477 66.9136 254.142 67.1303C254.814 67.3394 255.423 67.6196 255.968 67.9707C256.521 68.3218 257.01 68.7289 257.436 69.1921C257.869 69.6478 258.239 70.1259 258.546 70.6264L257.459 71.3435C256.839 70.1408 256.144 69.263 255.374 68.7102C254.605 68.15 253.72 67.8698 252.719 67.8698C251.86 67.8698 251.056 68.0267 250.309 68.3405C249.562 68.6542 248.909 69.1024 248.348 69.6851C247.796 70.2678 247.359 70.9775 247.037 71.8142C246.724 72.6434 246.567 73.5809 246.567 74.6268Z" fill="white"/>
<path d="M270.981 67.1415H273.479V82H270.981V67.1415Z" fill="white"/>
<path d="M292.29 66.8053L299.283 82H296.739L294.475 77.0472H288.1L285.758 82H284.503L291.663 66.8053H292.29ZM288.537 76.0835H294.016L291.316 70.2006L288.537 76.0835Z" fill="white"/>
<path d="M310.306 67.1415H312.805V81.0364H320.29V82H310.306V67.1415Z" fill="white"/>
<rect x="30" y="74.6531" width="35.3061" height="2.64796" fill="white"/>
<rect x="340.694" y="74.6531" width="35.3061" height="2.64796" fill="white"/>
</svg>
